<?xml version="1.0" encoding="UTF-8"?>
<svg xmlns="http://www.w3.org/2000/svg" viewBox="0 0 160 160" width="160" height="160">
  <defs>
    <linearGradient id="flameFade" x1="50%" y1="100%" x2="50%" y2="0%">
      <stop offset="0%" stop-color="#e8a35c" stop-opacity="1"/>
      <stop offset="35%" stop-color="#e8a35c" stop-opacity="0.85"/>
      <stop offset="70%" stop-color="#e8a35c" stop-opacity="0.4"/>
      <stop offset="100%" stop-color="#e8a35c" stop-opacity="0"/>
    </linearGradient>
    <linearGradient id="flameInner" x1="50%" y1="100%" x2="50%" y2="0%">
      <stop offset="0%" stop-color="#f2ead8" stop-opacity="0.9"/>
      <stop offset="50%" stop-color="#f2ead8" stop-opacity="0.3"/>
      <stop offset="100%" stop-color="#f2ead8" stop-opacity="0"/>
    </linearGradient>
  </defs>
  <g transform="translate(48 10)">
    <path d="M32 92 C 14 86, 8 70, 14 54 C 18 44, 24 40, 22 28 C 22 18, 28 10, 34 4 C 34 16, 44 22, 48 36 C 54 50, 52 70, 44 80 C 40 86, 36 90, 32 92 Z" fill="url(#flameFade)"/>
    <path d="M32 88 C 22 82, 20 70, 24 60 C 28 52, 30 46, 30 38 C 30 30, 34 24, 36 18 C 38 28, 42 36, 42 50 C 42 64, 38 78, 32 88 Z" fill="url(#flameInner)"/>
  </g>
  <text x="80" y="138" text-anchor="middle"
        font-family="Inter, system-ui, -apple-system, Segoe UI, Helvetica, Arial, sans-serif"
        font-size="20" letter-spacing="-0.5" fill="#f2ead8">
    <tspan font-weight="600">Fire</tspan><tspan font-weight="300" fill-opacity="0.7">Sleep</tspan>
  </text>
</svg>